<svg width="auto" height="auto" viewBox="0 0 48 45" fill="none" xmlns="http://www.w3.org/2000/svg"><path d="M36.175 26.59c1.246-.017 2.242-1.012 2.226-2.223V2.222C38.417 1.01 37.421.016 36.175 0H2.227C.98.016-.016 1.01 0 2.222v22.145c-.017 1.211.98 2.206 2.226 2.222H8.02l1.22 10.745 12.136-10.745h14.798z" fill="#2A7BBF"></path><path d="M46.205 13.87h-6.323v11.161a4.228 4.228 0 01-4.194 4.253H21.761l-4.696 4.276v.5a1.818 1.818 0 001.793 1.842H30.78l9.776 8.903.983-8.903h4.667A1.818 1.818 0 0048 34.061V15.71a1.818 1.818 0 00-1.794-1.84z" fill="#C05355"></path></svg>
